<svg width="107" height="81" viewBox="0 0 107 81" fill="none" xmlns="http://www.w3.org/2000/svg">
<path d="M32.089 13.501C32.089 6.13903 27.297 0.164062 21.3926 0.164062H0C5.90437 0.164062 10.6963 6.13903 10.6963 13.501" fill="#6495ED" fill-opacity="0.24"/>
<path d="M10.7148 13.4784L10.7148 40.1523L32.1075 40.1523L32.1075 13.4784L10.7148 13.4784Z" fill="#6495ED" fill-opacity="0.24"/>
<path d="M42.7843 53.5128C42.7843 46.1507 37.9923 40.1758 32.088 40.1758H10.6953C16.5997 40.1758 21.3916 46.1507 21.3916 53.5128" fill="#6495ED" fill-opacity="0.24"/>
<path d="M21.4102 53.4901V80.1641H42.8028V53.4901H21.4102Z" fill="#6495ED" fill-opacity="0.24"/>
<path d="M64.1788 13.501C64.1788 6.13903 59.3869 0.164062 53.4825 0.164062H32.0898C37.9942 0.164062 42.7862 6.13903 42.7862 13.501" fill="#6495ED" fill-opacity="0.24"/>
<path d="M42.8047 13.4784L42.8047 40.1523L64.1973 40.1523L64.1973 13.4784L42.8047 13.4784Z" fill="#6495ED" fill-opacity="0.24"/>
<path d="M74.8741 53.5128C74.8741 46.1507 70.0822 40.1758 64.1778 40.1758H42.7852C48.6895 40.1758 53.4815 46.1507 53.4815 53.5128" fill="#6495ED" fill-opacity="0.24"/>
<path d="M53.5 53.4901V80.1641H74.8927V53.4901H53.5Z" fill="#6495ED" fill-opacity="0.24"/>
<path d="M96.2687 13.501C96.2687 6.13903 91.4767 0.164062 85.5723 0.164062H64.1797C70.0841 0.164062 74.876 6.13903 74.876 13.501" fill="#6495ED" fill-opacity="0.24"/>
<path d="M74.8906 13.4784L74.8906 40.1523L96.2833 40.1523L96.2833 13.4784L74.8906 13.4784Z" fill="#6495ED" fill-opacity="0.24"/>
<path d="M106.964 53.5128C106.964 46.1507 102.172 40.1758 96.2676 40.1758H74.875C80.7794 40.1758 85.5713 46.1507 85.5713 53.5128" fill="#6495ED" fill-opacity="0.24"/>
<path d="M85.5898 53.4901V80.1641H106.982V53.4901H85.5898Z" fill="#6495ED" fill-opacity="0.24"/>
</svg>
