<svg width="25" height="25" viewBox="0 0 25 25" fill="none" xmlns="http://www.w3.org/2000/svg">
<path d="M10.4774 18.2593C10.3427 18.2588 10.2095 18.2307 10.0861 18.1766C9.96274 18.1225 9.8518 18.0436 9.76019 17.9449L4.98508 12.8652C4.80658 12.6749 4.71096 12.4216 4.71925 12.1609C4.72754 11.9001 4.83907 11.6534 5.02929 11.4749C5.21952 11.2964 5.47286 11.2008 5.73359 11.209C5.99432 11.2173 6.24108 11.3289 6.41958 11.5191L10.4676 15.8324L18.7307 6.79311C18.8146 6.68869 18.9189 6.60251 19.0373 6.53987C19.1556 6.47723 19.2856 6.43946 19.4191 6.42886C19.5526 6.41827 19.6868 6.43507 19.8136 6.47826C19.9404 6.52144 20.057 6.59008 20.1562 6.67996C20.2555 6.76985 20.3354 6.87908 20.3909 7.00095C20.4464 7.12283 20.4765 7.25476 20.4791 7.38866C20.4818 7.52255 20.4571 7.65559 20.4065 7.77958C20.3559 7.90357 20.2805 8.01591 20.1849 8.1097L11.2045 17.935C11.1138 18.0356 11.0032 18.1163 10.8798 18.1721C10.7563 18.2279 10.6227 18.2576 10.4873 18.2593H10.4774Z" fill="url(#paint0_linear_1642_13953)"/>
<defs>
<linearGradient id="paint0_linear_1642_13953" x1="4.71875" y1="12.3425" x2="20.4793" y2="12.3425" gradientUnits="userSpaceOnUse">
<stop stop-color="#6495ED"/>
<stop offset="1" stop-color="#7AD7FF"/>
</linearGradient>
</defs>
</svg>
