<svg width="58" height="58" viewBox="0 0 58 58" fill="none" xmlns="http://www.w3.org/2000/svg">
<g clip-path="url(#clip0_1734_8836)">
<rect x="1" y="1" width="56" height="56" rx="28" fill="#6495ED"/>
<path d="M1 12.1992H57" stroke="#00474D" stroke-width="0.6"/>
<path d="M45.8008 1L45.8008 57" stroke="#00474D" stroke-width="0.6"/>
<path d="M45.8008 8L45.8008 16.4" stroke="url(#paint0_linear_1734_8836)" stroke-width="0.6"/>
<path d="M50 12.1992L41.6 12.1992" stroke="url(#paint1_linear_1734_8836)" stroke-width="0.6"/>
<path d="M1 45.8008H57" stroke="#00474D" stroke-width="0.6"/>
<path d="M12.1992 1L12.1992 57" stroke="#00474D" stroke-width="0.6"/>
<path d="M45.8008 41.6016L45.8008 50.0016" stroke="url(#paint2_linear_1734_8836)" stroke-width="0.6"/>
<path d="M50 45.8008L41.6 45.8008" stroke="url(#paint3_linear_1734_8836)" stroke-width="0.6"/>
<path d="M12.1992 41.6016L12.1992 50.0016" stroke="url(#paint4_linear_1734_8836)" stroke-width="0.6"/>
<path d="M16.3984 45.8008L7.99844 45.8008" stroke="url(#paint5_linear_1734_8836)" stroke-width="0.6"/>
<path d="M12.1992 8L12.1992 16.4" stroke="url(#paint6_linear_1734_8836)" stroke-width="0.6"/>
<path d="M16.3984 12.1992L7.99844 12.1992" stroke="url(#paint7_linear_1734_8836)" stroke-width="0.6"/>
<path d="M33 24.9995L36 25C37.6569 25.0003 39.0002 23.6573 39.0005 22.0005C39.0007 20.3436 37.6578 19.0003 36.0009 19C34.3441 18.9997 33.0007 20.3427 33.0005 21.9995L33 24.9995L25.0005 24.9995L25 21.9995C24.9997 20.3427 23.6564 18.9997 21.9995 19C20.3427 19.0003 18.9997 20.3436 19 22.0005C19.0003 23.6573 20.3436 25.0003 22.0005 25L25.0005 24.9995L25 32.9995H33V24.9995Z" fill="white"/>
<path d="M33 32.9995L36 33C37.6569 32.9997 39.0002 34.3427 39.0005 35.9995C39.0007 37.6564 37.6578 38.9997 36.0009 39C34.3441 39.0003 33.0007 37.6573 33.0005 36.0005L33 32.9995Z" fill="white"/>
<path d="M22.0005 33L25.0005 33.0005L25 36.0005C24.9997 37.6573 23.6564 39.0003 21.9995 39C20.3427 38.9997 18.9997 37.6564 19 35.9995C19.0003 34.3427 20.3436 32.9997 22.0005 33Z" fill="white"/>
</g>
<rect x="0.5" y="0.5" width="57" height="57" rx="28.5" stroke="#00393D"/>
<defs>
<linearGradient id="paint0_linear_1734_8836" x1="45.8008" y1="16.4" x2="45.8008" y2="8" gradientUnits="userSpaceOnUse">
<stop stop-color="#19FFE9" stop-opacity="0"/>
<stop offset="0.50284" stop-color="#19FFE9"/>
<stop offset="1" stop-color="#19FFE9" stop-opacity="0"/>
</linearGradient>
<linearGradient id="paint1_linear_1734_8836" x1="41.6" y1="12.1992" x2="50" y2="12.1992" gradientUnits="userSpaceOnUse">
<stop stop-color="#19FFE9" stop-opacity="0"/>
<stop offset="0.50284" stop-color="#19FFE9"/>
<stop offset="1" stop-color="#19FFE9" stop-opacity="0"/>
</linearGradient>
<linearGradient id="paint2_linear_1734_8836" x1="45.8008" y1="50.0016" x2="45.8008" y2="41.6016" gradientUnits="userSpaceOnUse">
<stop stop-color="#19FFE9" stop-opacity="0"/>
<stop offset="0.50284" stop-color="#19FFE9"/>
<stop offset="1" stop-color="#19FFE9" stop-opacity="0"/>
</linearGradient>
<linearGradient id="paint3_linear_1734_8836" x1="41.6" y1="45.8008" x2="50" y2="45.8008" gradientUnits="userSpaceOnUse">
<stop stop-color="#19FFE9" stop-opacity="0"/>
<stop offset="0.50284" stop-color="#19FFE9"/>
<stop offset="1" stop-color="#19FFE9" stop-opacity="0"/>
</linearGradient>
<linearGradient id="paint4_linear_1734_8836" x1="12.1992" y1="50.0016" x2="12.1992" y2="41.6016" gradientUnits="userSpaceOnUse">
<stop stop-color="#19FFE9" stop-opacity="0"/>
<stop offset="0.50284" stop-color="#19FFE9"/>
<stop offset="1" stop-color="#19FFE9" stop-opacity="0"/>
</linearGradient>
<linearGradient id="paint5_linear_1734_8836" x1="7.99844" y1="45.8008" x2="16.3984" y2="45.8008" gradientUnits="userSpaceOnUse">
<stop stop-color="#19FFE9" stop-opacity="0"/>
<stop offset="0.50284" stop-color="#19FFE9"/>
<stop offset="1" stop-color="#19FFE9" stop-opacity="0"/>
</linearGradient>
<linearGradient id="paint6_linear_1734_8836" x1="12.1992" y1="16.4" x2="12.1992" y2="8" gradientUnits="userSpaceOnUse">
<stop stop-color="#19FFE9" stop-opacity="0"/>
<stop offset="0.50284" stop-color="#19FFE9"/>
<stop offset="1" stop-color="#19FFE9" stop-opacity="0"/>
</linearGradient>
<linearGradient id="paint7_linear_1734_8836" x1="7.99844" y1="12.1992" x2="16.3984" y2="12.1992" gradientUnits="userSpaceOnUse">
<stop stop-color="#19FFE9" stop-opacity="0"/>
<stop offset="0.50284" stop-color="#19FFE9"/>
<stop offset="1" stop-color="#19FFE9" stop-opacity="0"/>
</linearGradient>
<clipPath id="clip0_1734_8836">
<rect x="1" y="1" width="56" height="56" rx="28" fill="white"/>
</clipPath>
</defs>
</svg>
