<svg width="58" height="58" viewBox="0 0 58 58" fill="none" xmlns="http://www.w3.org/2000/svg">
<g clip-path="url(#clip0_1734_8935)">
<rect x="1" y="1" width="56" height="56" rx="28" fill="#6495ED"/>
<path d="M1 12.1992H57" stroke="#00474D" stroke-width="0.6"/>
<path d="M45.8008 1L45.8008 57" stroke="#00474D" stroke-width="0.6"/>
<path d="M45.8008 8L45.8008 16.4" stroke="url(#paint0_linear_1734_8935)" stroke-width="0.6"/>
<path d="M50 12.1992L41.6 12.1992" stroke="url(#paint1_linear_1734_8935)" stroke-width="0.6"/>
<path d="M1 45.8008H57" stroke="#00474D" stroke-width="0.6"/>
<path d="M12.1992 1L12.1992 57" stroke="#00474D" stroke-width="0.6"/>
<path d="M45.8008 41.6016L45.8008 50.0016" stroke="url(#paint2_linear_1734_8935)" stroke-width="0.6"/>
<path d="M50 45.8008L41.6 45.8008" stroke="url(#paint3_linear_1734_8935)" stroke-width="0.6"/>
<path d="M12.1992 41.6016L12.1992 50.0016" stroke="url(#paint4_linear_1734_8935)" stroke-width="0.6"/>
<path d="M16.3984 45.8008L7.99844 45.8008" stroke="url(#paint5_linear_1734_8935)" stroke-width="0.6"/>
<path d="M12.1992 8L12.1992 16.4" stroke="url(#paint6_linear_1734_8935)" stroke-width="0.6"/>
<path d="M16.3984 12.1992L7.99844 12.1992" stroke="url(#paint7_linear_1734_8935)" stroke-width="0.6"/>
<path d="M36.5 27.3711V36.5C36.5 37.0967 36.2629 37.669 35.841 38.091C35.419 38.5129 34.8467 38.75 34.25 38.75H23.75C23.1533 38.75 22.581 38.5129 22.159 38.091C21.7371 37.669 21.5 37.0967 21.5 36.5V21.5C21.5 20.9033 21.7371 20.331 22.159 19.909C22.581 19.4871 23.1533 19.25 23.75 19.25H28.3789C28.7766 19.2501 29.158 19.408 29.4392 19.6892L36.0608 26.3108C36.342 26.592 36.4999 26.9734 36.5 27.3711Z" stroke="white" stroke-width="1.5" stroke-linejoin="round"/>
<path d="M29 19.625V25.25C29 25.6478 29.158 26.0294 29.4393 26.3107C29.7206 26.592 30.1022 26.75 30.5 26.75H36.125" stroke="white" stroke-width="1.5" stroke-linecap="round" stroke-linejoin="round"/>
</g>
<rect x="0.5" y="0.5" width="57" height="57" rx="28.5" stroke="#00393D"/>
<defs>
<linearGradient id="paint0_linear_1734_8935" x1="45.8008" y1="16.4" x2="45.8008" y2="8" gradientUnits="userSpaceOnUse">
<stop stop-color="#19FFE9" stop-opacity="0"/>
<stop offset="0.50284" stop-color="#19FFE9"/>
<stop offset="1" stop-color="#19FFE9" stop-opacity="0"/>
</linearGradient>
<linearGradient id="paint1_linear_1734_8935" x1="41.6" y1="12.1992" x2="50" y2="12.1992" gradientUnits="userSpaceOnUse">
<stop stop-color="#19FFE9" stop-opacity="0"/>
<stop offset="0.50284" stop-color="#19FFE9"/>
<stop offset="1" stop-color="#19FFE9" stop-opacity="0"/>
</linearGradient>
<linearGradient id="paint2_linear_1734_8935" x1="45.8008" y1="50.0016" x2="45.8008" y2="41.6016" gradientUnits="userSpaceOnUse">
<stop stop-color="#19FFE9" stop-opacity="0"/>
<stop offset="0.50284" stop-color="#19FFE9"/>
<stop offset="1" stop-color="#19FFE9" stop-opacity="0"/>
</linearGradient>
<linearGradient id="paint3_linear_1734_8935" x1="41.6" y1="45.8008" x2="50" y2="45.8008" gradientUnits="userSpaceOnUse">
<stop stop-color="#19FFE9" stop-opacity="0"/>
<stop offset="0.50284" stop-color="#19FFE9"/>
<stop offset="1" stop-color="#19FFE9" stop-opacity="0"/>
</linearGradient>
<linearGradient id="paint4_linear_1734_8935" x1="12.1992" y1="50.0016" x2="12.1992" y2="41.6016" gradientUnits="userSpaceOnUse">
<stop stop-color="#19FFE9" stop-opacity="0"/>
<stop offset="0.50284" stop-color="#19FFE9"/>
<stop offset="1" stop-color="#19FFE9" stop-opacity="0"/>
</linearGradient>
<linearGradient id="paint5_linear_1734_8935" x1="7.99844" y1="45.8008" x2="16.3984" y2="45.8008" gradientUnits="userSpaceOnUse">
<stop stop-color="#19FFE9" stop-opacity="0"/>
<stop offset="0.50284" stop-color="#19FFE9"/>
<stop offset="1" stop-color="#19FFE9" stop-opacity="0"/>
</linearGradient>
<linearGradient id="paint6_linear_1734_8935" x1="12.1992" y1="16.4" x2="12.1992" y2="8" gradientUnits="userSpaceOnUse">
<stop stop-color="#19FFE9" stop-opacity="0"/>
<stop offset="0.50284" stop-color="#19FFE9"/>
<stop offset="1" stop-color="#19FFE9" stop-opacity="0"/>
</linearGradient>
<linearGradient id="paint7_linear_1734_8935" x1="7.99844" y1="12.1992" x2="16.3984" y2="12.1992" gradientUnits="userSpaceOnUse">
<stop stop-color="#19FFE9" stop-opacity="0"/>
<stop offset="0.50284" stop-color="#19FFE9"/>
<stop offset="1" stop-color="#19FFE9" stop-opacity="0"/>
</linearGradient>
<clipPath id="clip0_1734_8935">
<rect x="1" y="1" width="56" height="56" rx="28" fill="white"/>
</clipPath>
</defs>
</svg>
