<svg width="58" height="58" viewBox="0 0 58 58" fill="none" xmlns="http://www.w3.org/2000/svg">
<g clip-path="url(#clip0_1734_8770)">
<rect x="1" y="1" width="56" height="56" rx="28" fill="#6495ED"/>
<path d="M1 12.1992H57" stroke="#00474D" stroke-width="0.6"/>
<path d="M45.8008 1L45.8008 57" stroke="#00474D" stroke-width="0.6"/>
<path d="M45.8008 8L45.8008 16.4" stroke="url(#paint0_linear_1734_8770)" stroke-width="0.6"/>
<path d="M50 12.1992L41.6 12.1992" stroke="url(#paint1_linear_1734_8770)" stroke-width="0.6"/>
<path d="M1 45.8008H57" stroke="#00474D" stroke-width="0.6"/>
<path d="M12.1992 1L12.1992 57" stroke="#00474D" stroke-width="0.6"/>
<path d="M45.8008 41.6016L45.8008 50.0016" stroke="url(#paint2_linear_1734_8770)" stroke-width="0.6"/>
<path d="M50 45.8008L41.6 45.8008" stroke="url(#paint3_linear_1734_8770)" stroke-width="0.6"/>
<path d="M12.1992 41.6016L12.1992 50.0016" stroke="url(#paint4_linear_1734_8770)" stroke-width="0.6"/>
<path d="M16.3984 45.8008L7.99844 45.8008" stroke="url(#paint5_linear_1734_8770)" stroke-width="0.6"/>
<path d="M12.1992 8L12.1992 16.4" stroke="url(#paint6_linear_1734_8770)" stroke-width="0.6"/>
<path d="M16.3984 12.1992L7.99844 12.1992" stroke="url(#paint7_linear_1734_8770)" stroke-width="0.6"/>
<path d="M35 25C35 28.3137 32.3137 31 29 31C25.6863 31 23 28.3137 23 25C23 21.6863 25.6863 19 29 19C32.3137 19 35 21.6863 35 25Z" fill="white"/>
<path d="M22.0335 27.7852C20.2216 28.8177 19 30.767 19 33.0017C19 36.3154 21.6863 39.0017 25 39.0017C28.3137 39.0017 31 36.3154 31 33.0017C31 32.7454 30.9839 32.4928 30.9527 32.245C30.3301 32.4124 29.6755 32.5017 29 32.5017C25.8414 32.5017 23.1388 30.5491 22.0335 27.7852Z" fill="white"/>
<path d="M32.3876 31.6953C32.4621 32.1196 32.5009 32.5561 32.5009 33.0017C32.5009 35.0923 31.6455 36.9832 30.2656 38.3433C31.0859 38.7642 32.0157 39.0017 33.0009 39.0017C36.3147 39.0017 39.0009 36.3154 39.0009 33.0017C39.0009 30.767 37.7793 28.8177 35.9675 27.7852C35.2886 29.4828 34.0071 30.8743 32.3876 31.6953Z" fill="white"/>
</g>
<rect x="0.5" y="0.5" width="57" height="57" rx="28.5" stroke="#00393D"/>
<defs>
<linearGradient id="paint0_linear_1734_8770" x1="45.8008" y1="16.4" x2="45.8008" y2="8" gradientUnits="userSpaceOnUse">
<stop stop-color="#19FFE9" stop-opacity="0"/>
<stop offset="0.50284" stop-color="#19FFE9"/>
<stop offset="1" stop-color="#19FFE9" stop-opacity="0"/>
</linearGradient>
<linearGradient id="paint1_linear_1734_8770" x1="41.6" y1="12.1992" x2="50" y2="12.1992" gradientUnits="userSpaceOnUse">
<stop stop-color="#19FFE9" stop-opacity="0"/>
<stop offset="0.50284" stop-color="#19FFE9"/>
<stop offset="1" stop-color="#19FFE9" stop-opacity="0"/>
</linearGradient>
<linearGradient id="paint2_linear_1734_8770" x1="45.8008" y1="50.0016" x2="45.8008" y2="41.6016" gradientUnits="userSpaceOnUse">
<stop stop-color="#19FFE9" stop-opacity="0"/>
<stop offset="0.50284" stop-color="#19FFE9"/>
<stop offset="1" stop-color="#19FFE9" stop-opacity="0"/>
</linearGradient>
<linearGradient id="paint3_linear_1734_8770" x1="41.6" y1="45.8008" x2="50" y2="45.8008" gradientUnits="userSpaceOnUse">
<stop stop-color="#19FFE9" stop-opacity="0"/>
<stop offset="0.50284" stop-color="#19FFE9"/>
<stop offset="1" stop-color="#19FFE9" stop-opacity="0"/>
</linearGradient>
<linearGradient id="paint4_linear_1734_8770" x1="12.1992" y1="50.0016" x2="12.1992" y2="41.6016" gradientUnits="userSpaceOnUse">
<stop stop-color="#19FFE9" stop-opacity="0"/>
<stop offset="0.50284" stop-color="#19FFE9"/>
<stop offset="1" stop-color="#19FFE9" stop-opacity="0"/>
</linearGradient>
<linearGradient id="paint5_linear_1734_8770" x1="7.99844" y1="45.8008" x2="16.3984" y2="45.8008" gradientUnits="userSpaceOnUse">
<stop stop-color="#19FFE9" stop-opacity="0"/>
<stop offset="0.50284" stop-color="#19FFE9"/>
<stop offset="1" stop-color="#19FFE9" stop-opacity="0"/>
</linearGradient>
<linearGradient id="paint6_linear_1734_8770" x1="12.1992" y1="16.4" x2="12.1992" y2="8" gradientUnits="userSpaceOnUse">
<stop stop-color="#19FFE9" stop-opacity="0"/>
<stop offset="0.50284" stop-color="#19FFE9"/>
<stop offset="1" stop-color="#19FFE9" stop-opacity="0"/>
</linearGradient>
<linearGradient id="paint7_linear_1734_8770" x1="7.99844" y1="12.1992" x2="16.3984" y2="12.1992" gradientUnits="userSpaceOnUse">
<stop stop-color="#19FFE9" stop-opacity="0"/>
<stop offset="0.50284" stop-color="#19FFE9"/>
<stop offset="1" stop-color="#19FFE9" stop-opacity="0"/>
</linearGradient>
<clipPath id="clip0_1734_8770">
<rect x="1" y="1" width="56" height="56" rx="28" fill="white"/>
</clipPath>
</defs>
</svg>
