<svg width="58" height="59" viewBox="0 0 58 59" fill="none" xmlns="http://www.w3.org/2000/svg">
<g clip-path="url(#clip0_1734_8979)">
<rect x="1" y="1.5" width="56" height="56" rx="28" fill="#6495ED"/>
<path d="M1 12.6992H57" stroke="#00474D" stroke-width="0.6"/>
<path d="M45.8008 1.5L45.8008 57.5" stroke="#00474D" stroke-width="0.6"/>
<path d="M45.8008 8.5L45.8008 16.9" stroke="url(#paint0_linear_1734_8979)" stroke-width="0.6"/>
<path d="M50 12.6992L41.6 12.6992" stroke="url(#paint1_linear_1734_8979)" stroke-width="0.6"/>
<path d="M1 46.3008H57" stroke="#00474D" stroke-width="0.6"/>
<path d="M12.1992 1.5L12.1992 57.5" stroke="#00474D" stroke-width="0.6"/>
<path d="M45.8008 42.1016L45.8008 50.5016" stroke="url(#paint2_linear_1734_8979)" stroke-width="0.6"/>
<path d="M50 46.3008L41.6 46.3008" stroke="url(#paint3_linear_1734_8979)" stroke-width="0.6"/>
<path d="M12.1992 42.1016L12.1992 50.5016" stroke="url(#paint4_linear_1734_8979)" stroke-width="0.6"/>
<path d="M16.3984 46.3008L7.99844 46.3008" stroke="url(#paint5_linear_1734_8979)" stroke-width="0.6"/>
<path d="M12.1992 8.5L12.1992 16.9" stroke="url(#paint6_linear_1734_8979)" stroke-width="0.6"/>
<path d="M16.3984 12.6992L7.99844 12.6992" stroke="url(#paint7_linear_1734_8979)" stroke-width="0.6"/>
<path d="M39.7984 24.0992C39.7984 25.5314 39.2295 26.9049 38.2168 27.9176C37.2041 28.9303 35.8306 29.4992 34.3984 29.4992C32.9663 29.4992 31.5928 28.9303 30.5801 27.9176C29.5674 26.9049 28.9984 25.5314 28.9984 24.0992C28.9984 22.667 29.5674 21.2935 30.5801 20.2808C31.5928 19.2681 32.9663 18.6992 34.3984 18.6992C35.8306 18.6992 37.2041 19.2681 38.2168 20.2808C39.2295 21.2935 39.7984 22.667 39.7984 24.0992ZM34.9984 21.6992C34.9984 21.5401 34.9352 21.3875 34.8227 21.275C34.7102 21.1624 34.5576 21.0992 34.3984 21.0992C34.2393 21.0992 34.0867 21.1624 33.9742 21.275C33.8617 21.3875 33.7984 21.5401 33.7984 21.6992V23.4992H31.9984C31.8393 23.4992 31.6867 23.5624 31.5742 23.675C31.4617 23.7875 31.3984 23.9401 31.3984 24.0992C31.3984 24.2583 31.4617 24.411 31.5742 24.5235C31.6867 24.636 31.8393 24.6992 31.9984 24.6992H33.7984V26.4992C33.7984 26.6583 33.8617 26.811 33.9742 26.9235C34.0867 27.036 34.2393 27.0992 34.3984 27.0992C34.5576 27.0992 34.7102 27.036 34.8227 26.9235C34.9352 26.811 34.9984 26.6583 34.9984 26.4992V24.6992H36.7984C36.9576 24.6992 37.1102 24.636 37.2227 24.5235C37.3352 24.411 37.3984 24.2583 37.3984 24.0992C37.3984 23.9401 37.3352 23.7875 37.2227 23.675C37.1102 23.5624 36.9576 23.4992 36.7984 23.4992H34.9984V21.6992ZM37.3984 34.8992V29.9792C37.8259 29.7608 38.2283 29.4965 38.5984 29.1908V34.8992C38.5984 35.6949 38.2824 36.4579 37.7198 37.0205C37.1572 37.5831 36.3941 37.8992 35.5984 37.8992H22.3984C21.6028 37.8992 20.8397 37.5831 20.2771 37.0205C19.7145 36.4579 19.3984 35.6949 19.3984 34.8992V25.2992C19.3984 24.5036 19.7145 23.7405 20.2771 23.1779C20.8397 22.6153 21.6028 22.2992 22.3984 22.2992H28.0468C27.9359 22.6915 27.8616 23.0932 27.8248 23.4992H22.3984C21.921 23.4992 21.4632 23.6889 21.1256 24.0264C20.7881 24.364 20.5984 24.8218 20.5984 25.2992V25.6616L28.9984 30.6032L30.7276 29.5856C31.118 29.8472 31.5352 30.066 31.9792 30.242L29.3032 31.8164C29.2267 31.8614 29.1412 31.8888 29.0528 31.8966C28.9644 31.9045 28.8753 31.8927 28.792 31.862L28.6936 31.8164L20.5984 27.0548V34.8992C20.5984 35.3766 20.7881 35.8344 21.1256 36.172C21.4632 36.5096 21.921 36.6992 22.3984 36.6992H35.5984C36.0758 36.6992 36.5337 36.5096 36.8712 36.172C37.2088 35.8344 37.3984 35.3766 37.3984 34.8992Z" fill="white"/>
</g>
<rect x="0.5" y="1" width="57" height="57" rx="28.5" stroke="#00393D"/>
<defs>
<linearGradient id="paint0_linear_1734_8979" x1="45.8008" y1="16.9" x2="45.8008" y2="8.5" gradientUnits="userSpaceOnUse">
<stop stop-color="#19FFE9" stop-opacity="0"/>
<stop offset="0.50284" stop-color="#19FFE9"/>
<stop offset="1" stop-color="#19FFE9" stop-opacity="0"/>
</linearGradient>
<linearGradient id="paint1_linear_1734_8979" x1="41.6" y1="12.6992" x2="50" y2="12.6992" gradientUnits="userSpaceOnUse">
<stop stop-color="#19FFE9" stop-opacity="0"/>
<stop offset="0.50284" stop-color="#19FFE9"/>
<stop offset="1" stop-color="#19FFE9" stop-opacity="0"/>
</linearGradient>
<linearGradient id="paint2_linear_1734_8979" x1="45.8008" y1="50.5016" x2="45.8008" y2="42.1016" gradientUnits="userSpaceOnUse">
<stop stop-color="#19FFE9" stop-opacity="0"/>
<stop offset="0.50284" stop-color="#19FFE9"/>
<stop offset="1" stop-color="#19FFE9" stop-opacity="0"/>
</linearGradient>
<linearGradient id="paint3_linear_1734_8979" x1="41.6" y1="46.3008" x2="50" y2="46.3008" gradientUnits="userSpaceOnUse">
<stop stop-color="#19FFE9" stop-opacity="0"/>
<stop offset="0.50284" stop-color="#19FFE9"/>
<stop offset="1" stop-color="#19FFE9" stop-opacity="0"/>
</linearGradient>
<linearGradient id="paint4_linear_1734_8979" x1="12.1992" y1="50.5016" x2="12.1992" y2="42.1016" gradientUnits="userSpaceOnUse">
<stop stop-color="#19FFE9" stop-opacity="0"/>
<stop offset="0.50284" stop-color="#19FFE9"/>
<stop offset="1" stop-color="#19FFE9" stop-opacity="0"/>
</linearGradient>
<linearGradient id="paint5_linear_1734_8979" x1="7.99844" y1="46.3008" x2="16.3984" y2="46.3008" gradientUnits="userSpaceOnUse">
<stop stop-color="#19FFE9" stop-opacity="0"/>
<stop offset="0.50284" stop-color="#19FFE9"/>
<stop offset="1" stop-color="#19FFE9" stop-opacity="0"/>
</linearGradient>
<linearGradient id="paint6_linear_1734_8979" x1="12.1992" y1="16.9" x2="12.1992" y2="8.5" gradientUnits="userSpaceOnUse">
<stop stop-color="#19FFE9" stop-opacity="0"/>
<stop offset="0.50284" stop-color="#19FFE9"/>
<stop offset="1" stop-color="#19FFE9" stop-opacity="0"/>
</linearGradient>
<linearGradient id="paint7_linear_1734_8979" x1="7.99844" y1="12.6992" x2="16.3984" y2="12.6992" gradientUnits="userSpaceOnUse">
<stop stop-color="#19FFE9" stop-opacity="0"/>
<stop offset="0.50284" stop-color="#19FFE9"/>
<stop offset="1" stop-color="#19FFE9" stop-opacity="0"/>
</linearGradient>
<clipPath id="clip0_1734_8979">
<rect x="1" y="1.5" width="56" height="56" rx="28" fill="white"/>
</clipPath>
</defs>
</svg>
