<svg width="62" height="56" viewBox="0 0 62 56" fill="none" xmlns="http://www.w3.org/2000/svg">
<path fill-rule="evenodd" clip-rule="evenodd" d="M4.14152 18.7368C5.65789 13.3896 6.42282 7.79131 7.12359 2.36057C7.2705 1.19087 6.45069 0.104884 5.29569 0.021334C4.13984 -0.145766 3.08277 0.690222 2.93586 1.77637C2.26127 7.04001 1.53939 12.4703 0.0795948 17.5668C-0.237018 18.6529 0.414775 19.8231 1.53601 20.1573C2.6564 20.4915 3.82406 19.823 4.14152 18.7368Z" fill="#262626"/>
<path fill-rule="evenodd" clip-rule="evenodd" d="M25.6388 34.9433C34.5133 26.3376 42.2454 16.6458 51.3579 8.20731C52.209 7.45536 52.2546 6.11857 51.4601 5.28307C50.6648 4.44757 49.3274 4.36435 48.4763 5.19985C39.3376 13.6384 31.5802 23.3302 22.6795 31.9358C21.8487 32.7713 21.8369 34.1078 22.6542 34.9433C23.4707 35.6952 24.808 35.7788 25.6388 34.9433Z" fill="#262626"/>
<path fill-rule="evenodd" clip-rule="evenodd" d="M59.7746 51.0717C54.6953 51.3223 49.616 51.5725 44.5358 51.8231C43.3724 51.8231 42.474 52.8262 42.5306 53.9959C42.588 55.1656 43.5784 56.0006 44.7427 56.0006C49.8304 55.75 54.9174 55.4998 60.0043 55.2492C61.1677 55.1656 62.0602 54.1629 61.9968 52.9932C61.9335 51.907 60.9372 50.9881 59.7746 51.0717Z" fill="#262626"/>
</svg>
